<svg xmlns="http://www.w3.org/2000/svg" xmlns:xlink="http://www.w3.org/1999/xlink" version="1.1" width="533px" height="260px" viewBox="-0.5 -0.5 533 260"><defs><clipPath id="mx-clip-20-47-132-26-0"><rect x="20" y="47" width="132" height="26"/></clipPath><clipPath id="mx-clip-20-73-132-26-0"><rect x="20" y="73" width="132" height="26"/></clipPath><clipPath id="mx-clip-180-47-152-164-0"><rect x="180" y="47" width="152" height="164"/></clipPath><clipPath id="mx-clip-180-219-152-26-0"><rect x="180" y="219" width="152" height="26"/></clipPath><clipPath id="mx-clip-360-47-152-84-0"><rect x="360" y="47" width="152" height="84"/></clipPath><clipPath id="mx-clip-360-139-152-42-0"><rect x="360" y="139" width="152" height="42"/></clipPath></defs><g><path d="M 16 42 L 16 16 L 156 16 L 156 42" fill="none" stroke="#000000" stroke-miterlimit="10" pointer-events="all"/><path d="M 16 42 L 16 94 L 156 94 L 156 42" fill="none" stroke="#000000" stroke-miterlimit="10" pointer-events="none"/><path d="M 16 42 L 156 42" fill="none" stroke="#000000" stroke-miterlimit="10" pointer-events="none"/><g fill="#000000" font-family="Helvetica" text-anchor="middle" font-size="12px"><text x="85.5" y="33.5">ProjectData</text></g><g fill="#000000" font-family="Helvetica" clip-path="url(#mx-clip-20-47-132-26-0)" font-size="12px"><text x="21.5" y="59.5">+ name: string</text></g><g fill="#000000" font-family="Helvetica" clip-path="url(#mx-clip-20-73-132-26-0)" font-size="12px"><text x="21.5" y="85.5">+ sig: string</text></g><path d="M 176 42 L 176 16 L 336 16 L 336 42" fill="#ffffff" stroke="#000000" stroke-miterlimit="10" pointer-events="none"/><path d="M 176 42 L 176 240 L 336 240 L 336 42" fill="none" stroke="#000000" stroke-miterlimit="10" pointer-events="none"/><path d="M 176 42 L 336 42" fill="none" stroke="#000000" stroke-miterlimit="10" pointer-events="none"/><g fill="#000000" font-family="Helvetica" font-weight="bold" text-anchor="middle" font-size="12px"><text x="255.5" y="33.5">RpmData</text></g><g fill="#000000" font-family="Helvetica" clip-path="url(#mx-clip-180-47-152-164-0)" font-size="12px"><text x="181.5" y="59.5">+ name: string</text><text x="181.5" y="73.5">+ id: string</text><text x="181.5" y="87.5">+ short_name: string</text><text x="181.5" y="101.5">+ arch: string</text><text x="181.5" y="115.5">+ group: string</text><text x="181.5" y="129.5">+ description: string</text><text x="181.5" y="143.5">+ requires: [string]</text><text x="181.5" y="157.5">+ provides: [string]</text><text x="181.5" y="171.5">+ oe_release: string</text><text x="181.5" y="185.5">+ sig: string</text><text x="181.5" y="199.5">+ project: string</text></g><path d="M 176 210 L 336 210" fill="none" stroke="#000000" stroke-miterlimit="10" pointer-events="none"/><g fill="#000000" font-family="Helvetica" clip-path="url(#mx-clip-180-219-152-26-0)" font-size="12px"><text x="181.5" y="231.5">+ to_dict(self): dict</text></g><path d="M 356 42 L 356 16 L 516 16 L 516 42" fill="#ffffff" stroke="#000000" stroke-miterlimit="10" pointer-events="none"/><path d="M 356 42 L 356 176 L 516 176 L 516 42" fill="none" stroke="#000000" stroke-miterlimit="10" pointer-events="none"/><path d="M 356 42 L 516 42" fill="none" stroke="#000000" stroke-miterlimit="10" pointer-events="none"/><g fill="#000000" font-family="Helvetica" font-weight="bold" text-anchor="middle" font-size="12px"><text x="435.5" y="33.5">SigData</text></g><g fill="#000000" font-family="Helvetica" clip-path="url(#mx-clip-360-47-152-84-0)" font-size="12px"><text x="361.5" y="59.5">+ name: string</text><text x="361.5" y="73.5">+ mentors: [string]</text><text x="361.5" y="87.5">+ maintainers: [string]</text><text x="361.5" y="101.5">+ committers: [string]</text><text x="361.5" y="115.5">+ description: string</text></g><path d="M 356 130 L 516 130" fill="none" stroke="#000000" stroke-miterlimit="10" pointer-events="none"/><g fill="#000000" font-family="Helvetica" clip-path="url(#mx-clip-360-139-152-42-0)" font-size="12px"><text x="361.5" y="151.5">+ to_dict(self): dict</text><text x="361.5" y="165.5">+ parse_sig_yaml(self): self</text></g></g></svg>